{"title":"Avengers-Age Of Ultron.New.Source.HD.avi.720p","uid":11957965,"size":2181369349,"categoryP":"video","categoryS":"movies","magnet":"?xt=urn:btih:a990371fd165c66bdb3c1cdd9ef2fe153fc475d9&amp;dn=Avengers-Age+Of+Ultron.New.Source.HD.avi.720p&amp;tr=udp%3A%2F%2Ftracker.openbittorrent.com%3A80&amp;tr=udp%3A%2F%2Fopen.demonii.com%3A1337&amp;tr=udp%3A%2F%2Ftracker.coppersurfer.tk%3A6969&amp;tr=udp%3A%2F%2Fexodus.desync.com%3A6969","seeders":1,"leechers":0,"uploader":"PurePowerPunk","files":25,"time":1432488270,"description":"Format                                   : AVI\nFormat/Info                              : Audio Video Interleave\nFormat profile                           : OpenDML\nFile size                                : 2.03 GiB\nDuration                                 : 2h 13mn\nOverall bit rate                         : 2 173 Kbps\n\nVideo\nID                                       : 0\nFormat                                   : MPEG-4 Visual\nFormat profile                           : Simple@L3\nFormat settings, BVOP                    : No\nFormat settings, QPel                    : No\nFormat settings, GMC                     : No warppoints\nFormat settings, Matrix                  : Default (H.263)\nCodec ID                                 : XVID\nCodec ID/Hint                            : XviD\nDuration                                 : 2h 13mn\nBit rate                                 : 1 997 Kbps\nWidth                                    : 720 pixels\nHeight                                   : 352 pixels\nDisplay aspect ratio                     : 2.045\nFrame rate                               : 25.000 fps\nColor space                              : YUV\nChroma subsampling                       : 4:2:0\nBit depth                                : 8 bits\nScan type                                : Progressive\nCompression mode                         : Lossy\nBits/(Pixel*Frame)                       : 0.315\nStream size                              : 1.86 GiB (92%)\nWriting library                          : XviD 1.2.1 (UTC 2008-12-04)\n\nAudio\nID                                       : 1\nFormat                                   : MPEG Audio\nFormat version                           : Version 1\nFormat profile                           : Layer 3\nMode                                     : Joint stereo\nMode extension                           : MS Stereo\nCodec ID                                 : 55\nCodec ID/Hint                            : MP3\nDuration                                 : 2h 13mn\nBit rate mode                            : Constant\nBit rate                                 : 160 Kbps\nChannel(s)                               : 2 channels\nSampling rate                            : 44.1 KHz\nCompression mode                         : Lossy\nStream size                              : 153 MiB (7%)\nAlignment                                : Aligned on interleaves\nInterleave, duration                     : 26 ms (0.65 video frame)\nWriting library                          : LAME3.98.2\n &lt;a href=&quot;\nhttp://postimg.org/image/n60cjbxxj/&quot; rel=&quot;nofollow&quot; target=&quot;_NEW&quot;&gt;\nhttp://postimg.org/image/n60cjbxxj/&lt;/a&gt;\n &lt;a href=&quot;\nhttp://postimg.org/image/n60cjbxxj/&quot; rel=&quot;nofollow&quot; target=&quot;_NEW&quot;&gt;\nhttp://postimg.org/image/n60cjbxxj/&lt;/a&gt;\n &lt;a href=&quot;\nhttp://postimg.org/image/ayaa4n7cv/&quot; rel=&quot;nofollow&quot; target=&quot;_NEW&quot;&gt;\nhttp://postimg.org/image/ayaa4n7cv/&lt;/a&gt;\n &lt;a href=&quot;\nhttp://postimg.org/image/hpjvwmgbd/&quot; rel=&quot;nofollow&quot; target=&quot;_NEW&quot;&gt;\nhttp://postimg.org/image/hpjvwmgbd/&lt;/a&gt;\n &lt;a href=&quot;\nhttp://postimg.org/image/hpjvwmgbd/&quot; rel=&quot;nofollow&quot; target=&quot;_NEW&quot;&gt;\nhttp://postimg.org/image/hpjvwmgbd/&lt;/a&gt;\n &lt;a href=&quot;\nhttp://postimg.org/image/bfoxojf3r/&quot; rel=&quot;nofollow&quot; target=&quot;_NEW&quot;&gt;\nhttp://postimg.org/image/bfoxojf3r/&lt;/a&gt;\n &lt;a href=&quot;\nhttp://postimg.org/image/3kw9lk0er/&quot; rel=&quot;nofollow&quot; target=&quot;_NEW&quot;&gt;\nhttp://postimg.org/image/3kw9lk0er/&lt;/a&gt;\n &lt;a href=&quot;\nhttp://postimg.org/image/7jjvmrph9/&quot; rel=&quot;nofollow&quot; target=&quot;_NEW&quot;&gt;\nhttp://postimg.org/image/7jjvmrph9/&lt;/a&gt;\n &lt;a href=&quot;\nhttp://postimg.org/image/4frbhplq5/&quot; rel=&quot;nofollow&quot; target=&quot;_NEW&quot;&gt;\nhttp://postimg.org/image/4frbhplq5/&lt;/a&gt;\n &lt;a href=&quot;\nhttp://postimg.org/image/crsfuxxun/&quot; rel=&quot;nofollow&quot; target=&quot;_NEW&quot;&gt;\nhttp://postimg.org/image/crsfuxxun/&lt;/a&gt;\n\n\nI will be uploading a much more enhanced version some with in the next 24 hours after I'm done encoding it, going to look almost like dvd quality when I'm done with it","torrent":{"xt":"urn:btih:a990371fd165c66bdb3c1cdd9ef2fe153fc475d9","amp;dn":"Avengers-Age+Of+Ultron.New.Source.HD.avi.720p","amp;tr":["udp%3A%2F%2Ftracker.openbittorrent.com%3A80","udp%3A%2F%2Fopen.demonii.com%3A1337","udp%3A%2F%2Ftracker.coppersurfer.tk%3A6969","udp%3A%2F%2Fexodus.desync.com%3A6969"],"infoHash":"a990371fd165c66bdb3c1cdd9ef2fe153fc475d9","infoHashBuffer":{"type":"Buffer","data":[169,144,55,31,209,101,198,107,219,60,28,221,158,242,254,21,63,196,117,217]},"announce":[],"urlList":[]}}